# xmcd CD database file
#
# Track frame offsets:
#	150
#	13935
#	37840
#	57859
#	79913
#	102453
#	115678
#	146895
#	164866
#	185821
#	204860
#	237382
#	258737
#
# Disc length: 3786 seconds
#
# Revision: 2
# Processed by: cddbd v1.5.2PL0 Copyright (c) Steve Scherf et al.
# Submitted via: CDex 1.70beta2
#
DISCID=bf0ec80d
DTITLE=Gadji-Gadjo - Sur le Toit des Voisins
DYEAR=2007
DGENRE=Jazz
TTITLE0=Sher Evreiskii Nardniitanets
TTITLE1=Perds-pas ta Langue!
TTITLE2=Au-del du Riel
TTITLE3=Treize Anes Pour Ovide
TTITLE4=Da Zna Zora
TTITLE5=Octoberburrekfest
TTITLE6=L'Olivier de Boheme
TTITLE7=Reverie Ephemere
TTITLE8=Gargantuberlesque
TTITLE9=Allegro Diabolico
TTITLE10=Bihav Haitshito Ande Phuv
TTITLE11=Zettler Vasser
TTITLE12=La Tempete des Corneilles
EXTD=YEAR: 2007
EXTT0=
EXTT1=
EXTT2=
EXTT3=
EXTT4=
EXTT5=
EXTT6=
EXTT7=
EXTT8=
EXTT9=
EXTT10=
EXTT11=
EXTT12=
PLAYORDER=
